<svg width="29" height="29" viewBox="0 0 29 29" fill="none" xmlns="http://www.w3.org/2000/svg">
<path fill-rule="evenodd" clip-rule="evenodd" d="M14.5 3C8.14873 3 3 8.14873 3 14.5C3 20.8513 8.14873 26 14.5 26C20.8513 26 26 20.8513 26 14.5C26 8.14873 20.8513 3 14.5 3ZM0 14.5C0 6.49187 6.49187 0 14.5 0C22.5081 0 29 6.49187 29 14.5C29 22.5081 22.5081 29 14.5 29C6.49187 29 0 22.5081 0 14.5Z" fill="#FAF7F3" fill-opacity="0.3334"/>
<path fill-rule="evenodd" clip-rule="evenodd" d="M26 14.5C26 8.14873 20.8513 3 14.5 3V0C22.5081 0 29 6.49187 29 14.5H26Z" fill="white"/>
</svg>
